<?xml version="1.0" encoding="UTF-8"?>
<svg xmlns="http://www.w3.org/2000/svg" xmlns:xlink="http://www.w3.org/1999/xlink" width="235px" height="320px" viewBox="0 0 235 319" version="1.1">
<g id="surface1">
<path style=" stroke:none;fill-rule:nonzero;fill:rgb(58.039216%,74.509804%,89.803922%);fill-opacity:1;" d="M 16.480469 29.296875 L 16.480469 234.960938 C 16.480469 263.585938 53.636719 273.898438 83.503906 282.183594 L 83.648438 282.234375 C 90.019531 284.015625 96.050781 285.703125 101.457031 287.4375 C 101.503906 287.4375 107.535156 289.460938 112.84375 292.980469 C 114.53125 294.085938 116.222656 295.4375 117.574219 296.640625 C 119.214844 295.195312 120.804688 293.992188 122.300781 292.980469 C 127.417969 289.652344 133.0625 287.679688 133.6875 287.484375 C 139.09375 285.703125 145.125 284.015625 151.496094 282.28125 L 151.640625 282.234375 C 181.507812 273.945312 218.664062 263.632812 218.664062 235.007812 L 218.664062 29.296875 C 210.605469 26.886719 172.535156 16.382812 117.574219 16.382812 C 62.5625 16.382812 24.539062 26.886719 16.480469 29.296875 Z M 16.480469 29.296875 "/>
<path style=" stroke:none;fill-rule:nonzero;fill:rgb(94.117647%,94.117647%,94.117647%);fill-opacity:1;" d="M 117.574219 309.410156 L 112.796875 304.929688 C 110.960938 303.242188 109.222656 301.796875 107.726562 300.832031 C 103.53125 298.085938 98.558594 296.398438 98.511719 296.398438 C 93.347656 294.714844 87.414062 293.027344 81.09375 291.292969 L 80.996094 291.292969 C 65.359375 286.957031 47.652344 282.039062 33.5625 274.136719 C 25.40625 269.558594 19.324219 264.5 14.933594 258.621094 C 9.722656 251.683594 7.117188 243.78125 7.117188 235.058594 L 7.117188 22.550781 L 11.894531 20.960938 C 13.582031 20.382812 54.164062 7.035156 117.574219 7.035156 C 180.980469 7.035156 221.5625 20.382812 223.25 20.960938 L 228.027344 22.550781 L 228.027344 234.960938 C 228.027344 243.683594 225.375 251.585938 220.210938 258.523438 C 215.820312 264.355469 209.738281 269.464844 201.582031 274.042969 C 187.445312 281.945312 169.734375 286.859375 154.101562 291.195312 L 154.003906 291.195312 C 147.730469 292.929688 141.746094 294.570312 136.585938 296.304688 C 136.535156 296.304688 131.566406 298.039062 127.417969 300.738281 C 125.921875 301.75 124.183594 303.144531 122.347656 304.832031 Z M 11.796875 25.875 L 11.796875 234.960938 C 11.796875 242.625 14.113281 249.609375 18.699219 255.730469 C 22.703125 261.03125 28.300781 265.703125 35.878906 269.945312 C 49.484375 277.605469 66.90625 282.425781 82.25 286.667969 L 82.347656 286.667969 C 88.714844 288.449219 94.699219 290.085938 99.960938 291.824219 C 100.199219 291.917969 105.507812 293.703125 110.238281 296.785156 C 111.976562 297.941406 113.953125 299.53125 115.933594 301.410156 L 117.523438 302.90625 L 119.117188 301.410156 C 121.144531 299.53125 123.074219 297.941406 124.8125 296.785156 C 129.585938 293.652344 135.039062 291.824219 135.089844 291.824219 C 140.398438 290.085938 146.378906 288.402344 152.75 286.667969 L 152.847656 286.667969 C 168.238281 282.425781 185.613281 277.558594 199.21875 269.945312 C 206.796875 265.703125 212.394531 261.03125 216.398438 255.730469 C 220.980469 249.609375 223.296875 242.625 223.296875 234.960938 L 223.296875 25.875 L 221.707031 25.347656 C 220.066406 24.816406 180.207031 11.710938 117.574219 11.710938 C 54.9375 11.710938 15.078125 24.816406 13.390625 25.347656 Z M 11.796875 25.875 "/>
<path style=" stroke:none;fill-rule:nonzero;fill:rgb(28.235294%,0%,14.117647%);fill-opacity:1;" d="M 117.574219 303 L 115.980469 301.507812 C 114.582031 300.207031 112.457031 298.328125 110.285156 296.882812 C 105.507812 293.75 100.054688 291.917969 100.007812 291.917969 C 94.746094 290.183594 88.765625 288.546875 82.441406 286.761719 L 82.296875 286.714844 C 66.953125 282.472656 49.535156 277.605469 35.925781 269.992188 C 19.664062 260.839844 11.796875 249.417969 11.796875 234.960938 L 11.796875 25.875 L 13.390625 25.347656 C 13.777344 25.203125 54.9375 11.710938 117.574219 11.710938 C 150.289062 11.710938 176.828125 15.421875 193.332031 18.503906 C 211.28125 21.878906 221.320312 25.203125 221.753906 25.347656 L 223.347656 25.875 L 223.347656 234.960938 C 223.347656 249.417969 215.480469 260.839844 199.265625 269.945312 C 185.660156 277.605469 168.238281 282.425781 152.894531 286.667969 L 152.75 286.714844 C 146.429688 288.449219 140.445312 290.136719 135.136719 291.871094 C 134.945312 291.917969 129.539062 293.796875 124.859375 296.832031 C 123.121094 297.941406 121.191406 299.582031 119.164062 301.460938 Z M 16.480469 29.296875 L 16.480469 234.960938 C 16.480469 263.585938 53.636719 273.898438 83.503906 282.183594 L 83.648438 282.234375 C 90.019531 284.015625 96.050781 285.703125 101.457031 287.4375 C 101.503906 287.4375 107.535156 289.460938 112.84375 292.980469 C 114.53125 294.085938 116.222656 295.4375 117.574219 296.640625 C 119.214844 295.195312 120.804688 293.992188 122.300781 292.980469 C 127.417969 289.652344 133.0625 287.679688 133.6875 287.484375 C 139.09375 285.703125 145.125 284.015625 151.496094 282.28125 L 151.640625 282.234375 C 181.507812 273.945312 218.664062 263.632812 218.664062 235.007812 L 218.664062 29.296875 C 210.605469 26.886719 172.535156 16.382812 117.574219 16.382812 C 62.5625 16.382812 24.539062 26.886719 16.480469 29.296875 Z M 16.480469 29.296875 "/>
<path style=" stroke:none;fill-rule:nonzero;fill:rgb(100%,100%,100%);fill-opacity:1;" d="M 43.550781 50.164062 L 49.773438 46.839844 L 55.953125 50.164062 L 54.746094 43.175781 L 59.761719 38.210938 L 52.863281 37.199219 L 49.773438 30.839844 L 46.636719 37.199219 L 39.738281 38.210938 L 44.757812 43.175781 Z M 43.550781 50.164062 "/>
<path style=" stroke:none;fill-rule:nonzero;fill:rgb(49.019608%,63.921569%,78.823529%);fill-opacity:1;" d="M 83.457031 102.011719 C 86.253906 102.011719 87.992188 100.566406 89.488281 98.542969 C 88.957031 98.445312 88.476562 98.398438 87.992188 98.300781 C 85.820312 101.144531 82.828125 102.011719 83.457031 102.011719 Z M 83.457031 102.011719 "/>
<path style=" stroke:none;fill-rule:nonzero;fill:rgb(49.019608%,63.921569%,78.823529%);fill-opacity:1;" d="M 95.183594 130.105469 C 85.917969 130.492188 74.625 134.585938 69.992188 139.164062 C 65.988281 143.164062 69.027344 148.128906 65.167969 151.933594 C 64.539062 153.1875 64.589844 154.921875 64.589844 156.078125 C 66.472656 155.402344 67.292969 153.8125 67.292969 153.8125 C 67.292969 153.8125 67.484375 156.511719 70.1875 156.800781 C 70.765625 159.210938 72.308594 161.234375 72.792969 161.234375 C 73.128906 161.234375 72.453125 157.957031 73.46875 155.886719 C 74.144531 155.210938 74.578125 154.535156 74.914062 153.765625 C 74.480469 152.5625 74.578125 151.40625 74.722656 150.972656 C 74.769531 150.875 74.867188 150.828125 74.914062 150.921875 C 75.058594 151.066406 75.300781 151.210938 75.589844 151.40625 C 76.023438 148.609375 75.734375 145.671875 78.292969 143.117188 C 82.152344 139.261719 90.792969 135.742188 98.945312 134.492188 C 97.644531 132.949219 96.339844 131.40625 95.183594 130.105469 Z M 95.183594 130.105469 "/>
<path style=" stroke:none;fill-rule:nonzero;fill:rgb(49.019608%,63.921569%,78.823529%);fill-opacity:1;" d="M 102.46875 74.785156 C 101.214844 75.171875 96.292969 78.882812 94.410156 80.761719 C 93.6875 81.484375 95.039062 83.414062 94.746094 83.703125 C 94.746094 83.703125 94.699219 83.75 94.601562 83.75 C 94.121094 83.75 93.6875 83.605469 93.253906 83.363281 C 93.6875 85.292969 95.617188 87.363281 97.160156 88.617188 C 99.1875 86.976562 101.214844 85.773438 102.855469 84.472656 C 103.289062 84.039062 103.820312 83.605469 104.445312 83.074219 C 105.605469 81.820312 106.378906 80.425781 106.378906 78.402344 C 106.425781 75.847656 105.074219 73.96875 102.46875 74.785156 Z M 102.46875 74.785156 "/>
<path style=" stroke:none;fill-rule:nonzero;fill:rgb(49.019608%,63.921569%,78.823529%);fill-opacity:1;" d="M 61.308594 160.367188 C 61.789062 160.367188 61.210938 157.863281 62.273438 156.269531 C 62.515625 156.320312 62.753906 156.367188 62.996094 156.367188 C 63.140625 156.367188 63.335938 156.367188 63.480469 156.320312 C 62.898438 155.5 62.222656 154.246094 61.933594 152.898438 C 60.199219 152.707031 59.523438 151.550781 59.234375 150.730469 C 59.085938 151.597656 59.234375 152.707031 59.667969 153.667969 C 58.265625 156.464844 60.679688 160.367188 61.308594 160.367188 Z M 61.308594 160.367188 "/>
<path style=" stroke:none;fill-rule:nonzero;fill:rgb(49.019608%,63.921569%,78.823529%);fill-opacity:1;" d="M 90.644531 73.773438 C 93.589844 72.523438 94.601562 68.90625 94.601562 66.738281 C 94.601562 65.679688 93.832031 65.101562 92.285156 65.101562 C 91.273438 65.101562 88.667969 65.199219 86.6875 65.679688 C 86.160156 66.402344 85.964844 67.269531 85.964844 68.328125 C 85.917969 70.207031 88.667969 72.523438 90.644531 73.773438 Z M 90.644531 73.773438 "/>
<path style=" stroke:none;fill-rule:nonzero;fill:rgb(49.019608%,63.921569%,78.823529%);fill-opacity:1;" d="M 115.160156 172.027344 C 115.160156 163.886719 120.128906 160.898438 120.128906 155.742188 C 120.128906 154.585938 119.359375 152.464844 118.921875 151.933594 C 118.875 151.933594 118.921875 151.984375 118.921875 151.984375 C 120.417969 156.851562 116.558594 158.441406 113.761719 166.246094 C 110.285156 167.210938 106.570312 170.199219 106.570312 175.5 C 106.570312 181.089844 110.914062 185.136719 114.871094 185.136719 C 115.496094 185.136719 115.980469 184.941406 116.269531 184.847656 C 116.316406 184.847656 116.316406 184.847656 116.367188 184.847656 C 115.402344 183.304688 114.820312 181.472656 114.820312 179.402344 C 114.820312 177.957031 115.113281 176.65625 115.59375 175.546875 C 115.304688 174.582031 115.160156 173.425781 115.160156 172.027344 Z M 115.160156 172.027344 "/>
<path style=" stroke:none;fill-rule:nonzero;fill:rgb(49.019608%,63.921569%,78.823529%);fill-opacity:1;" d="M 76.894531 110.878906 C 78.292969 112.949219 79.402344 115.167969 79.886719 117.382812 C 81.238281 116.371094 82.058594 115.699219 82.058594 115.699219 C 80.03125 113.675781 78.632812 112.371094 76.894531 110.878906 Z M 76.894531 110.878906 "/>
<path style=" stroke:none;fill-rule:nonzero;fill:rgb(49.019608%,63.921569%,78.823529%);fill-opacity:1;" d="M 129.007812 186.675781 C 129.925781 187.785156 130.601562 189.085938 130.601562 190.964844 C 130.601562 193.425781 129.683594 194.820312 129.296875 195.304688 C 129.25 195.398438 129.296875 195.496094 129.394531 195.496094 C 130.261719 195.640625 133.640625 195.738281 136.875 190.386719 C 141.167969 192.605469 140.011719 196.316406 139.671875 197.183594 C 139.625 197.277344 139.722656 197.375 139.816406 197.375 C 145.414062 197.183594 147.199219 189.617188 147.199219 189.617188 C 147.34375 189.617188 147.539062 189.570312 147.683594 189.570312 C 147.730469 189.375 147.730469 189.136719 147.730469 188.941406 C 147.730469 186.871094 143.824219 185.183594 138.902344 185.714844 C 138.902344 185.714844 137.117188 193.28125 131.519531 193.472656 C 131.421875 193.472656 131.375 193.375 131.375 193.28125 C 131.710938 192.410156 132.820312 188.894531 129.007812 186.675781 Z M 129.007812 186.675781 "/>
<path style=" stroke:none;fill-rule:nonzero;fill:rgb(49.019608%,63.921569%,78.823529%);fill-opacity:1;" d="M 121.046875 195.109375 C 121.09375 195.015625 121.046875 194.917969 120.949219 194.917969 C 116.800781 194.964844 115.0625 192.988281 114.726562 191.785156 C 119.019531 193.519531 121.578125 192.699219 123.023438 191.449219 C 122.109375 191.6875 121.433594 191.640625 121.09375 191.59375 C 121 191.59375 120.949219 191.449219 121 191.398438 C 121.238281 191.0625 121.769531 190.292969 122.109375 188.992188 C 119.9375 188.652344 117.8125 187.207031 116.414062 185.039062 C 116.414062 185.039062 116.414062 185.039062 116.414062 185.085938 C 115.980469 186.292969 113.808594 190.964844 106.378906 187.929688 C 106.714844 189.136719 108.453125 191.109375 112.601562 191.0625 C 112.699219 191.0625 112.746094 191.160156 112.699219 191.253906 C 111.539062 193.617188 109.515625 194.148438 107.875 194.148438 C 105.363281 194.148438 102.902344 192.699219 100.152344 192.699219 C 94.746094 192.699219 92.191406 199.449219 83.359375 199.449219 C 84.566406 198.144531 84.519531 195.0625 81.238281 195.0625 C 75.347656 195.0625 70.378906 202.195312 62.609375 202.339844 C 62.5625 202.339844 62.464844 202.339844 62.417969 202.339844 C 62.320312 202.339844 62.273438 202.339844 62.175781 202.339844 C 62.128906 202.773438 62.128906 203.253906 62.128906 203.734375 C 62.128906 206 62.851562 209.035156 63.285156 209.035156 C 63.71875 209.035156 64.007812 205.519531 65.503906 204.167969 C 66.132812 204.796875 66.90625 205.277344 67.773438 205.664062 C 68.59375 206.050781 69.558594 206.242188 70.667969 206.242188 C 70.71875 206.242188 70.8125 206.242188 70.863281 206.242188 C 78.679688 206.097656 83.648438 198.964844 89.488281 198.964844 C 92.769531 198.964844 92.816406 202.050781 91.613281 203.351562 C 100.492188 203.351562 103 196.605469 108.402344 196.605469 C 111.15625 196.605469 113.617188 198.050781 116.125 198.050781 C 117.863281 198 119.886719 197.472656 121.046875 195.109375 Z M 121.046875 195.109375 "/>
<path style=" stroke:none;fill-rule:nonzero;fill:rgb(49.019608%,63.921569%,78.823529%);fill-opacity:1;" d="M 182.957031 179.113281 C 180.542969 181.039062 176.007812 180.605469 176.007812 180.605469 C 178.132812 178.917969 179.675781 174.101562 177.503906 169.570312 C 177.457031 169.476562 177.3125 169.476562 177.261719 169.570312 C 175.382812 174.003906 171.8125 175.789062 168.289062 176.171875 C 168.09375 176.367188 167.902344 176.558594 167.707031 176.703125 C 167.707031 176.703125 172.195312 177.136719 174.65625 175.210938 C 174.753906 175.160156 174.851562 175.210938 174.851562 175.304688 C 174.609375 182.003906 165.585938 186.484375 165.585938 186.484375 C 166.695312 187.59375 169.203125 187.402344 170.167969 186.773438 C 170.265625 186.726562 170.363281 186.773438 170.363281 186.917969 C 170.167969 188.269531 168.578125 189.472656 167.226562 190.820312 C 156.078125 201.953125 158.589844 209.085938 152.703125 209.085938 C 152.75 208.84375 153.234375 206.773438 150.917969 206.773438 C 147.296875 206.773438 144.355469 213.613281 140.058594 217.902344 C 137.117188 220.84375 133.496094 222.722656 129.394531 222.722656 C 127.996094 222.722656 126.546875 222.09375 125.4375 221.371094 C 125.246094 221.515625 125.101562 221.660156 124.90625 221.804688 C 126.015625 223.683594 128.1875 224.167969 129.585938 224.167969 C 129.394531 225.949219 129.441406 228.984375 129.878906 229.417969 C 130.214844 229.757812 131.613281 226.867188 133.738281 225.324219 C 134.847656 226 136.246094 226.671875 137.695312 226.671875 C 141.746094 226.671875 145.414062 224.746094 148.359375 221.855469 C 152.652344 217.566406 155.597656 210.722656 159.214844 210.722656 C 161.484375 210.722656 161.050781 212.796875 161 213.035156 C 166.839844 213.035156 164.378906 205.90625 175.527344 194.773438 C 176.878906 193.425781 178.46875 192.21875 178.664062 190.871094 C 178.664062 190.773438 178.566406 190.675781 178.46875 190.726562 C 177.503906 191.351562 174.996094 191.542969 173.886719 190.4375 C 173.886719 190.4375 182.910156 185.953125 183.152344 179.257812 C 183.152344 179.113281 183.054688 179.0625 182.957031 179.113281 Z M 182.957031 179.113281 "/>
<path style=" stroke:none;fill-rule:nonzero;fill:rgb(49.019608%,63.921569%,78.823529%);fill-opacity:1;" d="M 47.121094 102.15625 C 47.457031 103.746094 48.761719 106.78125 51.609375 106.78125 C 52.910156 106.78125 53.828125 106.445312 54.40625 105.964844 C 54.695312 106.011719 55.035156 106.058594 55.421875 106.058594 C 59.183594 106.058594 60.054688 101.53125 64.734375 101.53125 C 64.734375 101.53125 64.78125 101.53125 64.78125 101.53125 C 61.886719 99.121094 58.652344 97.628906 56.433594 97.628906 C 51.753906 97.628906 50.882812 102.15625 47.121094 102.15625 Z M 47.121094 102.15625 "/>
<path style=" stroke:none;fill-rule:nonzero;fill:rgb(49.019608%,63.921569%,78.823529%);fill-opacity:1;" d="M 52.574219 70.691406 C 52.574219 79.652344 57.109375 83.605469 57.445312 83.941406 C 57.59375 84.085938 57.6875 84.28125 57.738281 84.519531 C 60.246094 84.859375 62.417969 85.484375 64.347656 86.253906 C 62.898438 84.328125 60.875 80.570312 60.875 74.59375 C 60.875 72.8125 59.667969 71.414062 57.785156 71.414062 C 57.207031 70.160156 55.660156 67.605469 52.429688 67.605469 C 51.753906 67.605469 51.222656 67.65625 50.789062 67.800781 C 51.898438 68.28125 52.574219 69.390625 52.574219 70.691406 Z M 52.574219 70.691406 "/>
<path style=" stroke:none;fill-rule:nonzero;fill:rgb(49.019608%,63.921569%,78.823529%);fill-opacity:1;" d="M 204.382812 86.253906 C 203.222656 86.253906 202.597656 86.449219 202.597656 86.449219 C 202.597656 86.449219 210.367188 78.835938 210.367188 66.980469 C 210.367188 61.582031 209.0625 59.511719 208.871094 59.511719 C 208.484375 59.511719 208.4375 62.738281 205.976562 65.199219 C 204.769531 66.402344 203.128906 66.882812 201.726562 67.511719 C 200.183594 76.8125 194.34375 82.542969 194.34375 82.542969 C 194.34375 82.542969 194.972656 82.351562 196.132812 82.351562 C 198.6875 82.351562 200.523438 84.136719 200.136719 84.519531 C 199.796875 84.859375 196.324219 84.375 193.042969 87.605469 C 193.042969 87.605469 188.796875 92.761719 181.75 92.761719 C 174.707031 92.761719 168.527344 89.339844 168.527344 89.339844 C 165.777344 91.796875 163.753906 95.605469 163.753906 99.21875 C 163.753906 102.785156 164.8125 106.109375 167.035156 109.578125 C 169.15625 112.855469 172.050781 115.890625 174.898438 118.828125 C 180.59375 124.757812 186.527344 130.925781 186.527344 139.597656 C 186.527344 143.789062 185.128906 147.742188 182.570312 150.683594 C 181.171875 152.320312 179.433594 153.621094 177.457031 154.535156 C 175.382812 155.5 173.015625 155.980469 170.507812 155.980469 C 166.742188 155.980469 163.558594 155.210938 160.710938 154.152344 C 161.386719 154.488281 162.113281 154.824219 162.835938 155.210938 C 167.179688 157.429688 172.101562 159.933594 178.855469 159.933594 C 181.363281 159.933594 183.679688 159.453125 185.804688 158.488281 C 187.78125 157.574219 189.472656 156.269531 190.917969 154.632812 C 193.476562 151.644531 194.875 147.695312 194.875 143.550781 C 194.875 134.875 188.988281 128.757812 183.246094 122.78125 C 180.398438 119.84375 177.503906 116.804688 175.382812 113.53125 C 173.113281 110.011719 172.101562 106.734375 172.101562 103.167969 C 172.101562 99.554688 174.125 95.75 176.878906 93.289062 C 176.878906 93.289062 183.003906 96.710938 190.097656 96.710938 C 197.144531 96.710938 201.390625 91.554688 201.390625 91.554688 C 204.625 88.328125 208.097656 88.808594 208.484375 88.472656 C 208.773438 88.039062 206.941406 86.253906 204.382812 86.253906 Z M 204.382812 86.253906 "/>
<path style=" stroke:none;fill-rule:nonzero;fill:rgb(49.019608%,63.921569%,78.823529%);fill-opacity:1;" d="M 135.28125 33.007812 C 135.332031 32.960938 135.332031 32.863281 135.234375 32.816406 C 134.316406 32.476562 132.339844 31.707031 127.800781 31.707031 C 126.644531 31.707031 125.535156 31.851562 124.472656 32.140625 C 128.816406 31.464844 132.339844 31.898438 135.28125 33.007812 Z M 135.28125 33.007812 "/>
<path style=" stroke:none;fill-rule:nonzero;fill:rgb(49.019608%,63.921569%,78.823529%);fill-opacity:1;" d="M 158.976562 172.316406 C 157.574219 170.535156 156.707031 168.222656 156.707031 165.667969 C 156.707031 160.464844 158.394531 158.152344 159.070312 153.523438 C 157.429688 152.851562 155.933594 152.078125 154.488281 151.355469 C 153.183594 150.683594 151.976562 150.054688 150.773438 149.574219 C 150.097656 154.246094 148.40625 156.5625 148.40625 161.8125 C 148.40625 167.933594 153.136719 172.367188 158.683594 172.367188 C 158.832031 172.316406 158.925781 172.316406 158.976562 172.316406 Z M 158.976562 172.316406 "/>
<path style=" stroke:none;fill-rule:nonzero;fill:rgb(49.019608%,63.921569%,78.823529%);fill-opacity:1;" d="M 155.644531 48.8125 C 155.742188 48.8125 155.789062 48.910156 155.742188 49.007812 C 155.019531 50.308594 153.039062 51.703125 151.398438 51.703125 C 150.625 51.703125 150.144531 51.609375 150.144531 51.609375 C 154.875 55.800781 154.199219 67.222656 159.214844 67.605469 C 159.3125 67.605469 159.359375 67.75 159.3125 67.847656 C 158.589844 68.472656 157.429688 68.957031 155.453125 68.957031 C 153.667969 68.957031 152.171875 68.039062 152.171875 68.039062 C 152.171875 68.039062 153.234375 69.679688 153.234375 71.945312 C 153.234375 74.207031 152.316406 74.785156 152.316406 78.015625 C 152.316406 80.808594 155.019531 82.640625 155.695312 83.074219 C 155.789062 83.125 155.789062 83.21875 155.695312 83.269531 C 155.308594 83.558594 154.632812 83.75 153.425781 83.75 C 152.027344 83.75 149.226562 82.785156 147.636719 81.195312 C 148.019531 81.582031 149.953125 83.652344 149.953125 87.171875 C 149.953125 90.6875 148.648438 93.386719 148.648438 96.90625 C 148.648438 99.988281 150.722656 101.675781 151.253906 102.0625 C 151.300781 102.109375 151.300781 102.207031 151.253906 102.253906 C 150.964844 102.496094 150.386719 102.832031 149.421875 102.832031 C 148.359375 102.832031 145.125 102.15625 143.242188 100.324219 C 144.207031 104.421875 141.601562 107.652344 141.601562 113.480469 C 141.601562 124.179688 149.855469 131.070312 151.011719 142.539062 C 153.234375 143.40625 155.308594 144.515625 157.382812 145.574219 C 158.007812 145.910156 158.636719 146.199219 159.265625 146.488281 C 157.960938 135.261719 149.902344 127.9375 149.902344 117.382812 C 149.902344 111.554688 152.507812 108.324219 151.542969 104.230469 C 153.425781 106.109375 156.660156 106.734375 157.71875 106.734375 C 158.007812 106.734375 158.25 106.6875 158.492188 106.636719 C 158.203125 105.769531 157.960938 104.902344 157.769531 104.035156 C 157.285156 103.21875 156.898438 102.15625 156.898438 100.808594 C 156.898438 99.074219 157.238281 97.53125 157.527344 96.039062 C 157.625 95.605469 157.71875 95.121094 157.816406 94.6875 C 158.058594 93.53125 158.203125 92.375 158.203125 91.074219 C 158.203125 87.554688 156.273438 85.484375 155.886719 85.097656 C 157.335938 86.542969 159.84375 87.460938 161.292969 87.605469 C 161.726562 87.074219 162.207031 86.542969 162.691406 86.015625 C 161.675781 85.148438 160.519531 83.703125 160.519531 81.871094 C 160.519531 78.640625 161.4375 78.0625 161.4375 75.796875 C 161.4375 73.535156 160.375 71.894531 160.375 71.894531 C 160.375 71.894531 161.871094 72.8125 163.65625 72.8125 C 165.632812 72.8125 166.792969 72.328125 167.515625 71.703125 C 167.613281 71.605469 167.5625 71.511719 167.417969 71.460938 C 162.402344 71.078125 163.078125 59.65625 158.347656 55.464844 C 158.347656 55.464844 158.832031 55.558594 159.601562 55.558594 C 161.242188 55.558594 163.222656 54.164062 163.945312 52.863281 C 163.992188 52.765625 163.945312 52.667969 163.847656 52.667969 C 156.320312 52.285156 153.039062 38.453125 140.542969 35.996094 C 146.910156 41.007812 150.144531 48.574219 155.644531 48.8125 Z M 155.644531 48.8125 "/>
<path style=" stroke:none;fill-rule:nonzero;fill:rgb(28.235294%,0%,14.117647%);fill-opacity:1;" d="M 43.5 256.5 C 41.523438 255.394531 39.929688 254.429688 39.929688 254.429688 C 40.414062 254.429688 41.136719 254.378906 41.621094 253.609375 C 42.003906 252.933594 42.296875 251.683594 42.679688 250.1875 C 42.777344 249.851562 42.875 249.464844 42.972656 249.128906 C 41.234375 248.066406 39.542969 246.960938 37.808594 245.804688 C 37.519531 246.042969 37.226562 246.238281 36.9375 246.476562 C 35.734375 247.441406 34.671875 248.210938 34.238281 248.839844 C 33.707031 249.609375 33.945312 250.285156 34.1875 250.71875 C 34.1875 250.71875 33.03125 249.851562 31.292969 248.648438 C 29.507812 247.394531 28.496094 246.671875 28.496094 246.671875 C 29.992188 246.671875 31.339844 245.753906 34.382812 243.636719 C 37.375 241.515625 40.316406 239.296875 43.210938 237.082031 C 43.453125 236.890625 43.695312 236.695312 43.886719 236.40625 C 44.082031 236.117188 44.03125 235.925781 44.03125 235.875 C 46.300781 237.417969 48.566406 238.863281 50.882812 240.261719 C 50.882812 240.261719 50.644531 240.308594 50.449219 240.648438 C 50.304688 240.9375 50.160156 241.226562 50.113281 241.515625 C 49.195312 245.03125 48.375 248.550781 47.601562 252.117188 C 46.832031 255.730469 46.589844 257.320312 47.167969 258.621094 C 47.074219 258.574219 45.671875 257.753906 43.5 256.5 Z M 45.433594 240.503906 C 45.769531 239.441406 45.960938 238.863281 46.058594 238.71875 C 45.960938 238.816406 45.625 239.203125 44.707031 240.019531 C 43.117188 241.417969 41.523438 242.769531 39.882812 244.164062 C 41.136719 245.03125 42.441406 245.851562 43.695312 246.621094 C 44.226562 244.550781 44.804688 242.527344 45.433594 240.503906 Z M 45.433594 240.503906 "/>
<path style=" stroke:none;fill-rule:nonzero;fill:rgb(28.235294%,0%,14.117647%);fill-opacity:1;" d="M 53.199219 261.851562 C 49.628906 260.113281 48.277344 258.476562 48.277344 258.523438 C 48.277344 258.523438 48.617188 258.042969 49.242188 256.839844 C 49.96875 255.488281 50.355469 254.671875 50.355469 254.671875 C 50.691406 256.261719 51.414062 258.042969 54.070312 259.34375 C 55.902344 260.210938 57.542969 260.546875 58.21875 259.101562 C 58.75 257.945312 58.074219 257.175781 57.0625 255.972656 C 56.480469 255.296875 55.953125 254.574219 55.421875 253.898438 C 53.875 251.921875 52.910156 249.898438 54.117188 247.632812 C 55.710938 244.648438 58.652344 244.359375 62.707031 246.285156 C 65.601562 247.632812 66.90625 248.9375 66.90625 248.9375 C 66.90625 248.9375 66.617188 249.464844 66.085938 250.765625 C 65.503906 252.117188 65.265625 252.886719 65.265625 252.886719 C 64.78125 251.105469 63.914062 249.660156 61.984375 248.742188 C 60.34375 247.972656 59.136719 247.875 58.558594 249.03125 C 58.027344 250.09375 58.703125 250.863281 59.8125 252.210938 C 60.292969 252.789062 60.777344 253.367188 61.257812 253.945312 C 63.042969 256.019531 64.058594 257.851562 63.042969 260.402344 C 61.308594 264.210938 57.445312 263.921875 53.199219 261.851562 Z M 53.199219 261.851562 "/>
<path style=" stroke:none;fill-rule:nonzero;fill:rgb(28.235294%,0%,14.117647%);fill-opacity:1;" d="M 82.152344 257.609375 C 82.152344 257.5625 82.058594 257.273438 81.429688 256.695312 C 80.898438 256.164062 79.980469 255.632812 78.726562 255.25 C 78.246094 255.105469 77.8125 254.960938 77.328125 254.816406 C 76.652344 256.886719 75.976562 258.957031 75.347656 261.078125 C 73.128906 268.019531 73.226562 268.164062 73.515625 269.320312 C 73.5625 269.464844 73.613281 269.65625 73.660156 269.800781 C 73.660156 269.800781 72.648438 269.464844 70.1875 268.597656 C 67.726562 267.777344 66.664062 267.390625 66.664062 267.390625 C 66.808594 267.296875 66.953125 267.199219 67.050781 267.101562 C 67.964844 266.425781 68.160156 266.28125 70.667969 259.246094 C 71.394531 257.273438 72.066406 255.296875 72.792969 253.320312 C 72.308594 253.175781 71.875 252.984375 71.394531 252.839844 C 70.1875 252.40625 69.125 252.261719 68.351562 252.355469 C 67.53125 252.453125 67.242188 252.597656 67.195312 252.644531 C 67.195312 252.644531 67.53125 251.972656 68.015625 250.765625 C 68.496094 249.609375 68.640625 249.128906 68.640625 249.128906 C 73.371094 251.054688 78.195312 252.644531 83.070312 253.996094 C 83.070312 253.996094 82.878906 254.523438 82.585938 255.683594 C 82.296875 256.886719 82.203125 257.5625 82.152344 257.609375 Z M 82.152344 257.609375 "/>
<path style=" stroke:none;fill-rule:nonzero;fill:rgb(28.235294%,0%,14.117647%);fill-opacity:1;" d="M 89.101562 273.945312 C 82.441406 272.59375 79.980469 268.453125 81.476562 263.007812 C 82.78125 258.332031 86.304688 254.621094 92.578125 255.875 C 98.367188 256.984375 100.925781 260.5 100.25 266.136719 C 99.71875 270.957031 96.4375 275.34375 89.101562 273.945312 Z M 92.140625 258.429688 C 89.488281 257.898438 87.800781 259.585938 86.785156 264.113281 C 85.773438 268.597656 86.640625 270.8125 89.535156 271.390625 C 92.480469 271.96875 94.167969 270.136719 94.941406 265.609375 C 95.664062 261.078125 94.796875 258.957031 92.140625 258.429688 Z M 92.140625 258.429688 "/>
<path style=" stroke:none;fill-rule:nonzero;fill:rgb(28.235294%,0%,14.117647%);fill-opacity:1;" d="M 120.757812 258.957031 C 120.273438 259.824219 120.128906 260.113281 120.226562 267.585938 C 120.273438 270.523438 120.324219 273.464844 120.371094 276.402344 C 120.371094 276.402344 119.550781 276.355469 117.667969 276.355469 C 115.640625 276.355469 114.097656 276.355469 114.097656 276.355469 C 111.878906 272.304688 109.898438 268.210938 108.066406 264.113281 C 107.679688 263.199219 107.4375 262.234375 107.4375 262.140625 C 107.292969 263.824219 107.199219 265.511719 107.054688 267.199219 C 106.472656 274.476562 106.617188 274.570312 107.148438 275.632812 C 107.246094 275.777344 107.292969 275.921875 107.390625 276.066406 C 107.390625 276.066406 106.472656 275.96875 104.496094 275.777344 C 102.371094 275.582031 101.550781 275.535156 101.550781 275.535156 C 101.648438 275.390625 101.746094 275.292969 101.890625 275.148438 C 102.515625 274.332031 102.757812 274.089844 103.53125 266.621094 C 104.253906 259.390625 104.15625 259.246094 103.722656 258.234375 C 103.675781 258.089844 103.578125 257.945312 103.53125 257.800781 C 103.53125 257.800781 104.496094 257.996094 106.90625 258.1875 C 108.933594 258.332031 109.949219 258.332031 109.949219 258.332031 C 111.734375 262.429688 113.710938 266.476562 115.835938 270.476562 C 116.367188 271.4375 116.558594 272.257812 116.605469 272.402344 C 116.605469 270.714844 116.65625 269.03125 116.65625 267.34375 C 116.703125 260.066406 116.605469 259.96875 116.078125 258.957031 C 115.980469 258.8125 115.933594 258.667969 115.835938 258.523438 C 115.835938 258.523438 116.605469 258.574219 118.394531 258.574219 C 120.226562 258.574219 121 258.476562 121 258.476562 C 120.902344 258.667969 120.804688 258.8125 120.757812 258.957031 Z M 120.757812 258.957031 "/>
<path style=" stroke:none;fill-rule:nonzero;fill:rgb(28.235294%,0%,14.117647%);fill-opacity:1;" d="M 144.789062 261.800781 C 144.304688 265.945312 143.726562 270.136719 143.003906 274.28125 C 143.003906 274.28125 141.699219 274.476562 139.382812 274.8125 C 137.164062 275.148438 135.667969 275.34375 135.667969 275.34375 C 133.835938 271.535156 132.097656 267.730469 130.457031 263.875 C 129.058594 260.5 128.429688 259.007812 127.367188 258.1875 C 127.367188 258.1875 128.332031 258.1875 130.890625 257.945312 C 133.542969 257.65625 134.558594 257.464844 134.558594 257.464844 C 134.269531 257.753906 133.785156 258.234375 133.929688 259.152344 C 134.027344 260.019531 134.65625 261.417969 135.425781 263.152344 C 136.632812 265.847656 137.886719 268.597656 139.140625 271.292969 C 139.433594 271.921875 139.671875 272.644531 139.722656 272.738281 C 139.722656 272.644531 139.769531 271.921875 139.867188 271.199219 C 140.300781 268.257812 140.6875 265.269531 141.074219 262.332031 C 141.265625 260.402344 141.457031 258.910156 141.265625 258.042969 C 141.121094 257.128906 140.542969 256.789062 140.15625 256.644531 C 140.15625 256.644531 141.167969 256.550781 143.339844 256.117188 C 145.367188 255.730469 146.1875 255.441406 146.1875 255.441406 C 145.414062 256.550781 145.222656 258.140625 144.789062 261.800781 Z M 144.789062 261.800781 "/>
<path style=" stroke:none;fill-rule:nonzero;fill:rgb(28.235294%,0%,14.117647%);fill-opacity:1;" d="M 154.488281 271.777344 C 151.976562 272.402344 150.917969 272.691406 150.917969 272.691406 C 150.964844 272.546875 151.011719 272.355469 151.109375 272.210938 C 151.496094 271.148438 151.59375 270.957031 149.855469 263.632812 C 148.164062 256.550781 148.070312 256.453125 147.296875 255.632812 C 147.199219 255.539062 147.054688 255.394531 146.960938 255.296875 C 146.960938 255.296875 147.875 255.152344 150.097656 254.574219 C 152.460938 253.945312 153.234375 253.65625 153.234375 253.707031 C 153.183594 253.851562 153.136719 254.042969 153.136719 254.1875 C 152.894531 255.25 152.796875 255.441406 154.777344 262.667969 C 156.707031 269.703125 156.851562 269.753906 157.71875 270.570312 C 157.863281 270.667969 157.960938 270.8125 158.105469 270.910156 C 158.058594 270.859375 156.996094 271.148438 154.488281 271.777344 Z M 154.488281 271.777344 "/>
<path style=" stroke:none;fill-rule:nonzero;fill:rgb(28.235294%,0%,14.117647%);fill-opacity:1;" d="M 173.210938 264.691406 C 173.304688 264.980469 173.402344 265.320312 173.5 265.609375 C 170.074219 267.007812 166.550781 268.257812 163.078125 269.367188 C 161.53125 269.847656 160.855469 270.089844 160.855469 270.089844 C 160.90625 269.945312 160.953125 269.753906 161 269.609375 C 161.292969 268.546875 161.386719 268.308594 159.167969 261.128906 C 156.996094 254.1875 156.851562 254.089844 156.03125 253.320312 C 155.933594 253.222656 155.789062 253.078125 155.695312 252.984375 C 155.695312 252.984375 156.5625 252.789062 158.925781 252.019531 C 161.242188 251.25 161.964844 250.910156 161.964844 250.910156 C 161.917969 251.105469 161.917969 251.25 161.871094 251.441406 C 161.628906 252.550781 161.675781 253.03125 163.558594 258.429688 C 164.425781 260.839844 165.246094 263.296875 166.117188 265.703125 C 166.742188 265.464844 167.371094 265.269531 168 265.03125 C 171.472656 263.730469 171.664062 262.863281 172.195312 261.175781 C 172.148438 261.175781 172.390625 262.140625 173.210938 264.691406 Z M 173.210938 264.691406 "/>
<path style=" stroke:none;fill-rule:nonzero;fill:rgb(28.235294%,0%,14.117647%);fill-opacity:1;" d="M 187.542969 257.945312 C 187.6875 258.234375 187.78125 258.523438 187.925781 258.8125 C 184.597656 260.597656 181.269531 262.234375 177.84375 263.730469 C 176.347656 264.402344 175.671875 264.691406 175.671875 264.691406 C 175.71875 264.546875 175.71875 264.355469 175.765625 264.210938 C 175.960938 263.101562 176.007812 262.863281 173.066406 255.972656 C 170.167969 249.273438 170.023438 249.226562 169.109375 248.550781 C 168.964844 248.453125 168.867188 248.355469 168.722656 248.261719 C 168.722656 248.261719 169.589844 247.972656 171.859375 246.960938 C 174.078125 245.949219 174.800781 245.515625 174.800781 245.515625 C 174.800781 245.707031 174.753906 245.851562 174.753906 246.042969 C 174.609375 247.152344 174.707031 247.683594 177.167969 252.789062 C 178.277344 255.105469 179.386719 257.464844 180.496094 259.777344 C 181.125 259.488281 181.703125 259.199219 182.332031 258.910156 C 185.707031 257.222656 185.804688 256.308594 186.140625 254.621094 C 186.09375 254.574219 186.433594 255.539062 187.542969 257.945312 Z M 187.542969 257.945312 "/>
<path style=" stroke:none;fill-rule:nonzero;fill:rgb(28.235294%,0%,14.117647%);fill-opacity:1;" d="M 203.609375 249.082031 C 201.726562 250.429688 200.183594 251.488281 200.183594 251.488281 C 200.378906 251.054688 200.667969 250.382812 200.136719 249.609375 C 199.703125 248.984375 198.6875 248.164062 197.480469 247.199219 C 197.191406 246.960938 196.902344 246.71875 196.613281 246.527344 C 194.925781 247.632812 193.1875 248.742188 191.449219 249.804688 C 191.546875 250.140625 191.644531 250.527344 191.691406 250.863281 C 192.078125 252.355469 192.320312 253.65625 192.703125 254.285156 C 193.1875 255.105469 193.910156 255.152344 194.34375 255.152344 C 194.34375 255.152344 193.089844 255.875 191.304688 256.886719 C 189.421875 257.945312 188.410156 258.574219 188.410156 258.574219 C 188.988281 257.222656 188.746094 255.585938 188.074219 251.972656 C 187.398438 248.355469 186.625 244.792969 185.757812 241.226562 C 185.660156 240.9375 185.613281 240.648438 185.417969 240.359375 C 185.273438 240.070312 185.03125 240.019531 184.984375 240.019531 C 187.300781 238.625 189.566406 237.179688 191.835938 235.636719 C 191.835938 235.636719 191.789062 235.875 191.980469 236.164062 C 192.175781 236.457031 192.367188 236.648438 192.609375 236.839844 C 195.40625 239.152344 198.300781 241.371094 201.199219 243.539062 C 204.140625 245.707031 205.492188 246.621094 206.988281 246.621094 C 207.035156 246.671875 205.683594 247.632812 203.609375 249.082031 Z M 189.808594 240.695312 C 188.988281 239.972656 188.554688 239.539062 188.457031 239.394531 C 188.507812 239.539062 188.699219 240.019531 189.039062 241.175781 C 189.617188 243.203125 190.195312 245.226562 190.773438 247.296875 C 192.078125 246.527344 193.332031 245.707031 194.585938 244.886719 C 192.996094 243.492188 191.402344 242.09375 189.808594 240.695312 Z M 189.808594 240.695312 "/>
<path style=" stroke:none;fill-rule:nonzero;fill:rgb(100%,100%,100%);fill-opacity:1;" d="M 98.027344 240.40625 L 98.027344 238.527344 C 99.863281 238.527344 100.78125 237.851562 100.828125 236.503906 L 102.804688 236.503906 L 102.804688 247.828125 L 100.394531 247.828125 L 100.394531 239.925781 C 100.007812 240.214844 99.1875 240.40625 98.027344 240.40625 Z M 98.027344 240.40625 "/>
<path style=" stroke:none;fill-rule:nonzero;fill:rgb(100%,100%,100%);fill-opacity:1;" d="M 108.742188 247.632812 C 108.066406 247.394531 107.488281 246.960938 107.101562 246.476562 C 106.714844 245.949219 106.523438 245.320312 106.523438 244.597656 C 106.523438 243.347656 107.246094 242.382812 108.644531 241.753906 L 108.644531 241.707031 C 107.582031 241.128906 107.054688 240.359375 107.054688 239.296875 C 107.054688 238.671875 107.246094 238.140625 107.582031 237.660156 C 107.921875 237.179688 108.402344 236.839844 109.03125 236.601562 C 109.660156 236.359375 110.335938 236.261719 111.105469 236.261719 C 111.878906 236.261719 112.554688 236.359375 113.179688 236.601562 C 113.808594 236.839844 114.292969 237.179688 114.628906 237.660156 C 114.964844 238.140625 115.160156 238.671875 115.160156 239.296875 C 115.160156 240.308594 114.628906 241.128906 113.566406 241.707031 L 113.566406 241.753906 C 114.964844 242.382812 115.691406 243.347656 115.691406 244.597656 C 115.691406 245.320312 115.496094 245.996094 115.113281 246.476562 C 114.726562 247.007812 114.144531 247.394531 113.472656 247.632812 C 112.796875 247.875 112.023438 248.019531 111.15625 248.019531 C 110.238281 248.019531 109.464844 247.921875 108.742188 247.632812 Z M 109.5625 245.707031 C 109.949219 246.042969 110.429688 246.238281 111.105469 246.238281 C 111.734375 246.238281 112.265625 246.042969 112.652344 245.707031 C 113.035156 245.371094 113.230469 244.9375 113.230469 244.40625 C 113.230469 243.875 113.035156 243.441406 112.652344 243.105469 C 112.265625 242.769531 111.78125 242.625 111.105469 242.625 C 110.429688 242.625 109.949219 242.769531 109.5625 243.105469 C 109.175781 243.441406 108.984375 243.875 108.984375 244.40625 C 108.984375 244.886719 109.175781 245.371094 109.5625 245.707031 Z M 109.753906 240.597656 C 110.042969 240.886719 110.527344 240.984375 111.105469 240.984375 C 111.683594 240.984375 112.121094 240.839844 112.457031 240.597656 C 112.746094 240.308594 112.941406 239.972656 112.941406 239.492188 C 112.941406 239.007812 112.796875 238.671875 112.457031 238.382812 C 112.167969 238.09375 111.683594 237.996094 111.105469 237.996094 C 110.527344 237.996094 110.09375 238.140625 109.753906 238.382812 C 109.464844 238.671875 109.273438 239.007812 109.273438 239.492188 C 109.320312 239.925781 109.464844 240.308594 109.753906 240.597656 Z M 109.753906 240.597656 "/>
<path style=" stroke:none;fill-rule:nonzero;fill:rgb(100%,100%,100%);fill-opacity:1;" d="M 120.660156 244.214844 C 121 243.007812 121.480469 241.898438 122.058594 240.886719 C 122.640625 239.875 123.265625 239.105469 123.941406 238.527344 L 123.941406 238.480469 L 118.34375 238.480469 L 118.34375 236.503906 L 126.5 236.503906 L 126.5 238.335938 C 125.246094 239.347656 124.328125 240.695312 123.652344 242.429688 C 122.976562 244.164062 122.640625 245.949219 122.640625 247.828125 L 120.082031 247.828125 C 120.128906 246.621094 120.273438 245.417969 120.660156 244.214844 Z M 120.660156 244.214844 "/>
<path style=" stroke:none;fill-rule:nonzero;fill:rgb(100%,100%,100%);fill-opacity:1;" d="M 133.449219 245.320312 L 128.238281 245.320312 L 128.238281 243.007812 L 133.449219 236.503906 L 135.859375 236.503906 L 135.859375 243.394531 L 137.5 243.394531 L 137.5 245.371094 L 135.859375 245.371094 L 135.859375 247.828125 L 133.449219 247.828125 Z M 133.449219 243.347656 L 133.449219 239.203125 L 130.117188 243.347656 Z M 133.449219 243.347656 "/>
<path style=" stroke:none;fill-rule:nonzero;fill:rgb(45.490196%,58.823529%,74.117647%);fill-opacity:1;" d="M 95.519531 51.753906 C 94.363281 52.910156 94.507812 54.355469 93.492188 55.367188 C 93.058594 55.800781 92.480469 56.089844 91.707031 56.089844 C 90.210938 56.089844 89.199219 54.835938 89.199219 53.585938 C 89.199219 52.285156 90.695312 51.125 94.746094 51.125 C 95.230469 51.125 95.808594 51.125 96.339844 51.175781 C 96.050781 51.269531 95.761719 51.464844 95.519531 51.753906 "/>
<path style=" stroke:none;fill-rule:nonzero;fill:rgb(100%,89.803922%,1.960784%);fill-opacity:1;" d="M 196.082031 82.351562 C 194.925781 82.351562 194.296875 82.542969 194.296875 82.542969 C 194.296875 82.542969 202.066406 74.929688 202.066406 63.078125 C 202.066406 57.679688 200.761719 55.609375 200.570312 55.609375 C 200.183594 55.609375 200.136719 58.835938 197.675781 61.292969 C 195.890625 63.078125 193.042969 63.269531 191.449219 64.859375 C 192.996094 61.582031 191.882812 57.199219 191.644531 57.199219 C 191.449219 57.199219 191.546875 59.511719 188.601562 62.449219 C 186.722656 64.328125 182.425781 65.679688 178.855469 69.195312 C 180.351562 65.726562 179.046875 62.113281 178.710938 62.113281 C 178.375 62.113281 178.710938 64.183594 176.683594 66.210938 C 174.800781 68.089844 171.183594 69.003906 168.480469 71.75 C 164.71875 75.507812 165.394531 81.195312 165.394531 83.269531 C 165.394531 83.460938 165.394531 83.652344 165.394531 83.847656 C 164.863281 84.230469 164.332031 84.664062 163.800781 85.097656 C 159.554688 88.808594 157.285156 93.722656 157.285156 99.265625 C 157.285156 109.867188 164.136719 117 170.21875 123.359375 C 172.921875 126.15625 175.429688 128.804688 177.261719 131.550781 C 179.144531 134.394531 180.015625 136.996094 180.015625 139.695312 C 180.015625 142.296875 179.144531 144.851562 177.601562 146.632812 C 175.863281 148.65625 173.5 149.667969 170.460938 149.667969 C 165.246094 149.667969 161.4375 147.742188 157.382812 145.671875 C 155.308594 144.609375 153.234375 143.5 151.011719 142.632812 C 149.855469 131.214844 141.601562 124.273438 141.601562 113.578125 C 141.601562 107.746094 144.207031 104.519531 143.242188 100.421875 C 145.125 102.300781 148.359375 102.929688 149.421875 102.929688 C 150.335938 102.929688 150.917969 102.589844 151.253906 102.351562 C 151.300781 102.300781 151.300781 102.207031 151.253906 102.15625 C 150.722656 101.773438 148.648438 100.085938 148.648438 97 C 148.648438 93.484375 149.953125 90.785156 149.953125 87.265625 C 149.953125 83.75 148.019531 81.675781 147.636719 81.292969 C 149.226562 82.882812 152.027344 83.847656 153.425781 83.847656 C 154.632812 83.847656 155.308594 83.652344 155.695312 83.363281 C 155.742188 83.316406 155.742188 83.21875 155.695312 83.171875 C 155.019531 82.738281 152.316406 80.90625 152.316406 78.113281 C 152.316406 74.882812 153.234375 74.304688 153.234375 72.039062 C 153.234375 69.773438 152.171875 68.136719 152.171875 68.136719 C 152.171875 68.136719 153.667969 69.050781 155.453125 69.050781 C 157.429688 69.050781 158.589844 68.570312 159.3125 67.945312 C 159.410156 67.847656 159.359375 67.75 159.214844 67.703125 C 154.199219 67.316406 154.875 55.898438 150.144531 51.703125 C 150.144531 51.703125 150.625 51.800781 151.398438 51.800781 C 153.039062 51.800781 155.019531 50.402344 155.742188 49.101562 C 155.789062 49.007812 155.742188 48.910156 155.644531 48.910156 C 146.574219 48.429688 143.679688 28.382812 123.21875 32.429688 C 124.28125 30.9375 126.257812 29.683594 126.933594 29.25 C 127.03125 29.203125 127.03125 29.058594 126.933594 29.007812 C 126.015625 28.671875 124.039062 27.902344 119.503906 27.902344 C 114.820312 27.902344 110.527344 30.40625 108.066406 33.585938 C 109.175781 31.371094 107.824219 28.574219 106.570312 27.175781 C 106.523438 27.082031 106.378906 27.128906 106.328125 27.226562 C 106.183594 27.804688 105.703125 29.007812 104.929688 29.78125 C 101.261719 33.441406 94.652344 35.804688 94.652344 43.464844 C 94.652344 43.464844 92.480469 44.863281 89.585938 46.839844 C 86.640625 48.8125 85.097656 51.945312 85.097656 52.957031 C 83.988281 53.535156 79.355469 56.957031 75.640625 60.667969 C 75.542969 60.765625 75.542969 60.910156 75.589844 61.003906 C 75.976562 61.632812 76.265625 62.402344 76.410156 62.835938 C 76.460938 63.027344 76.699219 63.078125 76.84375 62.933594 C 77.328125 62.449219 78.339844 61.582031 78.824219 61.4375 C 78.003906 62.257812 77.714844 63.269531 77.714844 64.523438 C 77.714844 67.316406 83.890625 71.222656 84.277344 70.835938 C 84.566406 70.546875 83.554688 67.703125 84.46875 66.789062 C 85.867188 65.390625 90.792969 65.246094 92.285156 65.246094 C 93.832031 65.246094 94.601562 65.824219 94.601562 66.882812 C 94.601562 69.484375 93.105469 74.351562 88.378906 74.351562 C 86.449219 74.351562 85.242188 72.523438 84.902344 72.8125 C 84.613281 73.101562 84.855469 75.847656 85.484375 76.761719 C 85.484375 76.761719 84.953125 77.390625 84.953125 78.691406 C 84.953125 82.0625 90.550781 86.398438 91.128906 85.820312 C 91.515625 85.4375 89.972656 81.628906 90.9375 81.628906 C 91.464844 81.628906 92.960938 83.796875 94.699219 83.796875 C 94.796875 83.796875 94.796875 83.75 94.84375 83.75 C 95.132812 83.460938 93.734375 81.53125 94.507812 80.808594 C 96.386719 78.929688 101.3125 75.21875 102.566406 74.835938 C 105.171875 74.015625 106.523438 75.894531 106.523438 78.449219 C 106.523438 84.136719 100.492188 85.292969 95.566406 90.160156 C 90.644531 95.074219 89.679688 102.0625 83.503906 102.0625 C 82.683594 102.0625 88.089844 100.566406 89.632812 95.21875 C 73.46875 95.363281 70.71875 86.351562 57.785156 84.617188 C 57.738281 84.425781 57.640625 84.230469 57.496094 84.039062 C 57.15625 83.703125 52.621094 79.703125 52.621094 70.789062 C 52.621094 69.003906 51.414062 67.605469 49.535156 67.605469 C 48.953125 66.355469 47.410156 63.800781 44.175781 63.800781 C 41.089844 63.800781 40.316406 65.246094 40.507812 65.390625 C 40.703125 65.582031 42.003906 65.101562 43.597656 66.691406 C 44.515625 67.605469 44.902344 68.667969 45.046875 69.390625 C 44.660156 69.871094 44.417969 70.402344 44.417969 71.027344 C 44.417969 71.027344 42.824219 70.738281 41.28125 72.183594 C 40.605469 71.800781 39.496094 71.367188 37.808594 71.367188 C 33.367188 71.367188 32.453125 75.363281 32.644531 75.558594 C 32.835938 75.75 33.609375 74.835938 34.960938 74.835938 C 36.503906 74.835938 38.144531 76.085938 39.015625 76.8125 C 38.917969 77.824219 39.109375 78.785156 39.785156 79.460938 C 39.785156 79.460938 37.664062 80.085938 37.277344 83.074219 C 37.179688 83.074219 37.082031 83.125 36.988281 83.171875 C 31.101562 84.808594 32.210938 89.386719 32.453125 89.386719 C 32.691406 89.386719 32.980469 87.410156 35.683594 87.410156 C 36.601562 87.410156 37.375 87.507812 37.953125 87.652344 C 39.015625 89.675781 40.894531 90.160156 42.246094 90.160156 C 43.453125 90.160156 44.613281 89.871094 45.625 89.871094 C 46.976562 89.871094 47.796875 90.6875 47.796875 92.566406 C 47.796875 95.316406 45.140625 94.496094 43.9375 95.699219 C 43.117188 96.519531 43.019531 97.242188 43.019531 98.351562 C 43.019531 98.398438 43.019531 98.445312 43.019531 98.496094 C 42.632812 98.589844 42.246094 98.6875 41.859375 98.6875 C 40.027344 98.6875 38.964844 97.050781 38.722656 97.289062 C 38.386719 97.628906 39.496094 102.878906 43.210938 102.878906 C 44.515625 102.878906 45.433594 102.542969 46.011719 102.0625 C 46.300781 102.109375 46.636719 102.15625 47.023438 102.15625 C 50.789062 102.15625 51.65625 97.628906 56.335938 97.628906 C 60.96875 97.628906 69.992188 104.085938 71.296875 112.132812 C 71.296875 112.226562 71.441406 112.277344 71.488281 112.226562 C 73.515625 110.542969 73.417969 108.035156 73.417969 108.035156 C 77.230469 111.121094 78.824219 112.566406 82.007812 115.699219 C 82.007812 115.699219 63.429688 129.960938 62.464844 130.539062 C 61.644531 131.019531 61.210938 131.261719 60.199219 131.261719 C 57.59375 131.261719 56.773438 126.878906 52.574219 126.878906 C 51.753906 126.878906 51.175781 127.117188 50.691406 127.503906 C 50.257812 127.40625 49.726562 127.359375 49.050781 127.359375 C 44.128906 127.359375 43.261719 133.960938 43.695312 133.960938 C 44.175781 133.960938 44.515625 132.273438 46.832031 132.273438 C 47.121094 132.273438 47.457031 132.324219 47.746094 132.371094 C 47.746094 133.625 48.230469 134.828125 49.050781 135.453125 C 49.050781 135.453125 47.699219 135.9375 46.925781 137.527344 C 41.089844 137.71875 41.183594 144.609375 41.765625 144.609375 C 42.152344 144.609375 42.390625 141.71875 45.769531 141.71875 C 46.011719 141.71875 46.347656 141.816406 46.636719 141.960938 C 47.21875 144.515625 49.003906 145.910156 51.078125 145.910156 C 50.546875 146.875 50.644531 148.417969 51.222656 149.765625 C 49.871094 152.609375 52.285156 156.464844 52.910156 156.464844 C 53.394531 156.464844 52.816406 153.957031 53.875 152.367188 C 54.117188 152.417969 54.359375 152.464844 54.601562 152.464844 C 57.640625 152.464844 58.941406 149.910156 58.941406 149.910156 C 58.941406 149.910156 59.136719 152.609375 61.839844 152.898438 C 62.417969 155.308594 63.960938 157.332031 64.445312 157.332031 C 64.78125 157.332031 64.105469 154.054688 65.121094 151.984375 C 68.980469 148.128906 65.941406 143.164062 69.945312 139.214844 C 74.527344 134.636719 85.820312 130.539062 95.132812 130.152344 C 98.511719 133.914062 103.144531 139.648438 105.265625 141.09375 C 105.265625 141.09375 105.171875 141.1875 105.027344 141.332031 C 99.285156 147.066406 88.667969 142.054688 83.070312 147.644531 C 80.851562 149.863281 80.5625 151.886719 77.425781 151.886719 C 76.363281 151.886719 75.347656 151.355469 74.914062 150.921875 C 74.867188 150.875 74.722656 150.875 74.722656 150.972656 C 74.527344 151.644531 74.382812 153.863281 76.074219 155.546875 C 78.003906 157.476562 80.417969 157.140625 81.042969 156.800781 C 79.5 158.875 76.121094 158.777344 74.144531 157.621094 C 74.046875 157.574219 73.902344 157.667969 73.949219 157.765625 C 75.496094 163.742188 81.671875 162.585938 81.671875 162.585938 C 82.972656 168.992188 89.296875 171.644531 89.296875 175.933594 C 89.296875 177.136719 88.8125 178.484375 87.800781 179.496094 C 85.386719 181.90625 80.078125 183.496094 74.289062 183.496094 C 64.976562 183.496094 64.832031 176.894531 59.761719 176.894531 C 59.085938 176.894531 58.460938 176.992188 57.832031 177.136719 C 57.109375 176.316406 55.515625 175.355469 53.492188 175.355469 C 50.402344 175.355469 48.566406 178.871094 49.003906 179.304688 C 49.242188 179.546875 50.160156 178.4375 51.558594 178.4375 C 52.234375 178.4375 53.105469 179.015625 53.441406 179.980469 C 53.199219 180.269531 52.960938 180.605469 52.765625 180.992188 C 52.234375 180.847656 51.609375 180.75 50.789062 180.75 C 44.949219 180.75 45.046875 187.496094 45.671875 187.496094 C 46.011719 187.496094 46.78125 184.992188 49.628906 185.328125 C 49.050781 186.386719 48.761719 187.546875 48.761719 188.847656 C 48.761719 189.039062 48.761719 189.230469 48.761719 189.425781 C 47.410156 190.195312 46.398438 191.640625 46.398438 193.328125 C 46.398438 195.785156 46.878906 196.988281 47.21875 196.988281 C 47.652344 196.988281 48.039062 194.148438 50.160156 193.230469 C 51.125 194.53125 52.523438 195.542969 54.164062 195.976562 C 53.972656 196.796875 53.78125 198.097656 53.78125 199.929688 C 53.78125 202.195312 54.503906 205.230469 54.9375 205.230469 C 55.371094 205.230469 55.660156 201.710938 57.15625 200.363281 C 57.785156 200.988281 58.558594 201.472656 59.425781 201.855469 C 60.246094 202.242188 61.210938 202.433594 62.320312 202.433594 C 62.367188 202.433594 62.464844 202.433594 62.515625 202.433594 C 70.332031 202.289062 75.300781 195.160156 81.140625 195.160156 C 84.421875 195.160156 84.46875 198.242188 83.261719 199.542969 C 92.140625 199.542969 94.652344 192.796875 100.054688 192.796875 C 102.804688 192.796875 105.265625 194.242188 107.777344 194.242188 C 109.417969 194.242188 111.445312 193.714844 112.601562 191.351562 C 112.652344 191.253906 112.601562 191.160156 112.503906 191.160156 C 108.355469 191.207031 106.617188 189.230469 106.28125 188.027344 C 113.710938 191.015625 115.882812 186.386719 116.316406 185.183594 C 116.367188 185.085938 116.269531 184.992188 116.125 185.039062 C 115.835938 185.183594 115.304688 185.328125 114.726562 185.328125 C 110.71875 185.328125 106.425781 181.28125 106.425781 175.691406 C 106.425781 170.390625 110.09375 167.402344 113.617188 166.4375 C 116.367188 158.632812 120.273438 157.042969 118.777344 152.175781 C 118.777344 152.175781 118.777344 152.128906 118.777344 152.128906 C 119.214844 152.65625 119.984375 154.777344 119.984375 155.933594 C 119.984375 161.089844 115.015625 164.03125 115.015625 172.222656 C 115.015625 181.425781 122.203125 181.089844 122.203125 187.257812 C 122.203125 189.714844 121.289062 191.109375 120.902344 191.59375 C 120.855469 191.6875 120.902344 191.785156 121 191.785156 C 121.867188 191.929688 125.246094 192.027344 128.476562 186.675781 C 132.773438 188.894531 131.613281 192.605469 131.277344 193.472656 C 131.226562 193.570312 131.324219 193.664062 131.421875 193.664062 C 137.019531 193.472656 138.804688 185.90625 138.804688 185.90625 C 143.726562 185.375 147.636719 187.0625 147.636719 189.136719 C 147.636719 194.484375 137.644531 204.457031 130.359375 204.457031 C 127.65625 204.457031 126.691406 201.617188 124.328125 201.617188 C 122.589844 201.617188 121.769531 202.433594 121.238281 203.496094 C 120.273438 203.0625 119.308594 202.867188 118.394531 202.867188 C 116.078125 202.867188 114.050781 204.167969 113.324219 207.011719 C 110.1875 208.023438 109.5625 212.890625 109.851562 213.230469 C 110.09375 213.46875 111.636719 210.914062 114.195312 211.492188 C 114.628906 212.21875 115.160156 212.796875 115.59375 213.230469 C 115.0625 213.519531 114.53125 213.855469 113.90625 214.480469 C 110.816406 217.566406 111.589844 220.988281 111.878906 221.277344 C 112.214844 221.613281 112.746094 220.070312 113.617188 219.203125 C 114.292969 218.53125 115.257812 217.808594 116.558594 217.902344 C 117.621094 219.878906 119.886719 220.410156 121.335938 220.410156 C 121.144531 222.191406 121.191406 225.226562 121.625 225.660156 C 121.964844 226 123.363281 223.105469 125.484375 221.566406 C 126.597656 222.238281 127.996094 222.914062 129.441406 222.914062 C 133.496094 222.914062 137.164062 220.988281 140.105469 218.097656 C 144.402344 213.808594 147.34375 206.964844 150.964844 206.964844 C 153.234375 206.964844 152.796875 209.035156 152.75 209.277344 C 158.589844 209.277344 156.128906 202.144531 167.273438 191.015625 C 168.625 189.664062 170.21875 188.460938 170.410156 187.113281 C 170.410156 187.015625 170.316406 186.917969 170.21875 186.964844 C 169.253906 187.59375 166.742188 187.785156 165.632812 186.675781 C 165.632812 186.675781 174.65625 182.195312 174.898438 175.5 C 174.898438 175.402344 174.753906 175.304688 174.707031 175.402344 C 172.292969 177.328125 167.757812 176.894531 167.757812 176.894531 C 169.878906 175.210938 171.425781 170.390625 169.253906 165.859375 C 169.203125 165.765625 169.058594 165.765625 169.011719 165.859375 C 166.9375 170.824219 162.640625 172.511719 158.78125 172.511719 C 153.234375 172.511719 148.503906 168.027344 148.503906 161.957031 C 148.503906 156.753906 150.191406 154.390625 150.867188 149.71875 C 152.074219 150.246094 153.28125 150.828125 154.582031 151.5 C 158.925781 153.71875 163.847656 156.222656 170.605469 156.222656 C 173.113281 156.222656 175.429688 155.742188 177.554688 154.777344 C 179.53125 153.863281 181.21875 152.5625 182.667969 150.921875 C 185.226562 147.933594 186.625 143.984375 186.625 139.839844 C 186.625 131.164062 180.738281 125.046875 174.996094 119.070312 C 172.148438 116.132812 169.253906 113.09375 167.128906 109.820312 C 164.863281 106.300781 163.847656 103.023438 163.847656 99.457031 C 163.847656 95.84375 165.875 92.039062 168.625 89.582031 C 168.625 89.582031 174.753906 93 181.847656 93 C 188.894531 93 193.140625 87.84375 193.140625 87.84375 C 196.371094 84.617188 199.847656 85.097656 200.234375 84.761719 C 200.472656 84.136719 198.640625 82.351562 196.082031 82.351562 M 95.519531 51.753906 C 94.363281 52.910156 94.507812 54.355469 93.492188 55.367188 C 93.058594 55.800781 92.480469 56.089844 91.707031 56.089844 C 90.210938 56.089844 89.199219 54.835938 89.199219 53.585938 C 89.199219 52.285156 90.695312 51.125 94.746094 51.125 C 95.230469 51.125 95.808594 51.125 96.339844 51.175781 C 96.050781 51.269531 95.761719 51.464844 95.519531 51.753906 "/>
<path style=" stroke:none;fill-rule:nonzero;fill:rgb(28.235294%,0%,14.117647%);fill-opacity:1;" d="M 225.46875 14.261719 C 223.734375 13.683594 182.089844 0 117.574219 0 C 53.054688 0 11.414062 13.683594 9.675781 14.261719 L 0.0742188 17.492188 L 0.0742188 234.960938 C 0.0742188 245.226562 3.160156 254.574219 9.289062 262.71875 C 14.257812 269.367188 21.0625 275.054688 30.085938 280.113281 C 44.949219 288.449219 63.09375 293.507812 79.066406 297.941406 L 79.160156 297.992188 C 85.386719 299.726562 91.226562 301.316406 96.195312 302.953125 C 96.242188 302.953125 100.394531 304.398438 103.773438 306.617188 C 104.929688 307.386719 106.425781 308.589844 107.921875 309.988281 L 117.523438 319 L 127.125 309.988281 C 128.621094 308.589844 130.117188 307.386719 131.226562 306.617188 C 134.363281 304.542969 138.371094 303.097656 138.804688 302.953125 C 143.824219 301.316406 149.660156 299.675781 155.839844 297.992188 L 155.933594 297.941406 C 171.957031 293.507812 190.097656 288.449219 204.914062 280.113281 C 213.9375 275.054688 220.742188 269.367188 225.710938 262.71875 C 231.839844 254.523438 234.925781 245.175781 234.925781 234.960938 L 234.925781 17.492188 Z M 228.027344 234.960938 C 228.027344 243.683594 225.375 251.585938 220.210938 258.523438 C 215.820312 264.355469 209.738281 269.464844 201.582031 274.042969 C 187.445312 281.945312 169.734375 286.859375 154.101562 291.195312 L 154.003906 291.195312 C 147.730469 292.929688 141.746094 294.570312 136.585938 296.304688 C 136.535156 296.304688 131.566406 298.039062 127.417969 300.738281 C 125.921875 301.75 124.183594 303.144531 122.347656 304.832031 L 117.523438 309.3125 L 112.746094 304.832031 C 110.914062 303.144531 109.175781 301.699219 107.679688 300.738281 C 103.480469 297.992188 98.511719 296.304688 98.464844 296.304688 C 93.300781 294.617188 87.363281 292.929688 81.042969 291.195312 L 80.945312 291.195312 C 65.3125 286.859375 47.601562 281.945312 33.511719 274.042969 C 25.359375 269.464844 19.277344 264.402344 14.886719 258.523438 C 9.675781 251.585938 7.070312 243.683594 7.070312 234.960938 L 7.070312 22.550781 L 11.847656 20.960938 C 13.535156 20.382812 54.117188 7.035156 117.523438 7.035156 C 180.929688 7.035156 221.511719 20.382812 223.203125 20.960938 L 227.980469 22.550781 L 227.980469 234.960938 Z M 228.027344 234.960938 "/>
</g>
</svg>
